<svg width="24" height="24" viewBox="0 0 24 24" fill="none" xmlns="http://www.w3.org/2000/svg">
<path d="M19.3 7.91998V13.07C19.3 16.15 17.54 17.47 14.9 17.47H6.10999C5.65999 17.47 5.22999 17.43 4.82999 17.34C4.57999 17.3 4.34 17.23 4.12 17.15C2.62 16.59 1.70999 15.29 1.70999 13.07V7.91998C1.70999 4.83998 3.46999 3.52002 6.10999 3.52002H14.9C17.14 3.52002 18.75 4.47001 19.18 6.64001C19.25 7.04001 19.3 7.44998 19.3 7.91998Z" stroke="#F6F6F5" stroke-width="1.5" stroke-miterlimit="10" stroke-linecap="round" stroke-linejoin="round"/>
<path opacity="0.4" d="M22.3 10.92V16.07C22.3 19.15 20.54 20.47 17.9 20.47H9.10999C8.36999 20.47 7.7 20.37 7.12 20.15C5.93 19.71 5.11999 18.8 4.82999 17.34C5.22999 17.43 5.65999 17.47 6.10999 17.47H14.9C17.54 17.47 19.3 16.15 19.3 13.07V7.91998C19.3 7.44998 19.26 7.03001 19.18 6.64001C21.08 7.04001 22.3 8.37998 22.3 10.92Z" stroke="#F6F6F5" stroke-width="1.5" stroke-miterlimit="10" stroke-linecap="round" stroke-linejoin="round"/>
<path d="M10.5 13.14C11.958 13.14 13.14 11.958 13.14 10.5C13.14 9.04197 11.958 7.85999 10.5 7.85999C9.04197 7.85999 7.85999 9.04197 7.85999 10.5C7.85999 11.958 9.04197 13.14 10.5 13.14Z" stroke="#F6F6F5" stroke-width="1.5" stroke-miterlimit="10" stroke-linecap="round" stroke-linejoin="round"/>
<path opacity="0.4" d="M4.78 8.29999V12.7" stroke="#F6F6F5" stroke-width="1.5" stroke-miterlimit="10" stroke-linecap="round" stroke-linejoin="round"/>
<path opacity="0.4" d="M16.22 8.29999V12.7" stroke="#F6F6F5" stroke-width="1.5" stroke-miterlimit="10" stroke-linecap="round" stroke-linejoin="round"/>
</svg>
