<svg width="24" height="24" viewBox="0 0 24 24" fill="none" xmlns="http://www.w3.org/2000/svg">
<path opacity="0.4" d="M8.31982 15.27L14.8598 8.73001" stroke="#F6F6F5" stroke-width="1.5" stroke-linecap="round" stroke-linejoin="round"/>
<path opacity="0.4" d="M8.73001 10.37C9.40932 10.37 9.95999 9.81932 9.95999 9.14001C9.95999 8.4607 9.40932 7.91 8.73001 7.91C8.0507 7.91 7.5 8.4607 7.5 9.14001C7.5 9.81932 8.0507 10.37 8.73001 10.37Z" stroke="#F6F6F5" stroke-width="1.5" stroke-linecap="round" stroke-linejoin="round"/>
<path opacity="0.4" d="M15.27 16.09C15.9493 16.09 16.5 15.5393 16.5 14.86C16.5 14.1807 15.9493 13.63 15.27 13.63C14.5907 13.63 14.04 14.1807 14.04 14.86C14.04 15.5393 14.5907 16.09 15.27 16.09Z" stroke="#F6F6F5" stroke-width="1.5" stroke-linecap="round" stroke-linejoin="round"/>
<path d="M12 22C17.5228 22 22 17.5228 22 12C22 6.47715 17.5228 2 12 2C6.47715 2 2 6.47715 2 12C2 17.5228 6.47715 22 12 22Z" stroke="#F6F6F5" stroke-width="1.5" stroke-linecap="round" stroke-linejoin="round"/>
</svg>
